{"glyphs":{"0":{"ha":1167,"x_min":0,"x_max":0,"o":"m 874 972 l 292 972 l 97 777 l 97 194 l 292 0 l 874 0 l 1069 194 l 1069 777 z m 874 292 l 777 194 l 388 194 l 389 195 l 292 292 l 292 680 l 389 777 l 777 777 l 874 680 z "},"1":{"ha":390,"x_min":0,"x_max":0,"o":"m 293 0 l 293 977 l 97 977 l 97 0 z "},"2":{"ha":1167,"x_min":0,"x_max":0,"o":"m 389 389 l 875 389 l 1069 583 l 1069 778 l 875 972 l 97 972 l 97 778 l 778 778 l 875 681 l 778 583 l 292 583 l 97 389 l 97 194 l 292 0 l 1069 0 l 1069 194 l 389 194 l 292 292 l 292 292 z "},"3":{"ha":1167,"x_min":0,"x_max":0,"o":"m 1069 778 l 875 972 l 97 972 l 97 778 l 778 778 l 875 681 l 778 583 l 97 583 l 97 389 l 778 389 l 875 292 l 778 194 l 97 194 l 97 0 l 875 0 l 1069 194 l 1069 389 l 972 486 l 1069 583 z "},"4":{"ha":1167,"x_min":0,"x_max":0,"o":"m 1069 972 l 875 972 l 875 583 l 389 583 l 292 681 l 292 972 l 97 972 l 97 583 l 292 389 l 1069 389 l 875 194 l 875 0 l 1069 0 l 1069 389 l 1069 389 z "},"5":{"ha":1167,"x_min":0,"x_max":0,"o":"m 97 583 l 97 389 l 778 389 l 875 292 l 777 194 l 97 194 l 97 0 l 875 0 l 1069 194 l 1069 389 l 875 583 z m 1069 778 l 1069 972 l 97 972 l 97 778 z "},"6":{"ha":1167,"x_min":0,"x_max":0,"o":"m 1069 778 l 1069 972 l 292 972 l 97 778 l 97 583 l 195 486 l 97 389 l 97 194 l 292 0 l 875 0 l 1069 194 l 1069 389 l 875 583 l 389 583 l 292 681 l 389 778 z m 389 389 l 778 389 l 875 292 l 875 291 l 778 194 l 389 194 l 389 194 l 292 292 z "},"7":{"ha":1167,"x_min":0,"x_max":0,"o":"m 97 972 l 97 778 l 737 778 l 97 138 l 97 0 l 235 0 l 1069 835 l 1069 972 z "},"8":{"ha":1167,"x_min":0,"x_max":0,"o":"m 1069 583 l 1069 583 l 1069 778 l 875 972 l 292 972 l 97 778 l 97 583 l 195 486 l 97 389 l 97 194 l 292 0 l 875 0 l 1069 194 l 1069 389 l 972 486 z m 778 194 l 389 194 l 292 292 l 389 389 l 778 389 l 875 292 z m 778 583 l 389 583 l 292 680 l 389 778 l 778 778 l 875 680 z "},"9":{"ha":1167,"x_min":0,"x_max":0,"o":"m 1069 778 l 875 972 l 292 972 l 97 778 l 97 583 l 292 389 l 778 389 l 875 292 l 778 194 l 97 194 l 97 0 l 875 0 l 1069 194 l 1069 389 l 972 486 l 1069 583 z m 778 583 l 389 583 l 292 680 l 389 778 l 389 778 l 778 778 l 778 778 l 875 680 z "},"\u0000":{"ha":0,"x_min":0,"x_max":0,"o":""},"\n":{"ha":0,"x_min":0,"x_max":0,"o":""},"\r":{"ha":0,"x_min":0,"x_max":0,"o":""}," ":{"ha":543,"x_min":0,"x_max":0,"o":""},"!":{"ha":389,"x_min":0,"x_max":0,"o":"m 292 389 l 292 972 l 97 972 l 97 389 z m 292 0 l 292 194 l 97 194 l 97 0 z "},"\"":{"ha":778,"x_min":0,"x_max":0,"o":"m 292 778 l 292 1167 l 97 1167 l 97 778 z m 681 778 l 681 1167 l 486 1167 l 486 778 z "},"%":{"ha":1167,"x_min":0,"x_max":0,"o":"m 932 972 l 97 137 l 97 0 l 235 0 l 1069 835 l 1069 972 z m 1069 0 l 1069 194 l 875 194 l 875 0 z m 292 778 l 292 972 l 97 972 l 97 778 z "},"(":{"ha":583,"x_min":0,"x_max":0,"o":"m 389 972 l 486 972 l 486 1167 l 292 1167 l 97 972 l 97 0 l 292 -194 l 486 -194 l 486 0 l 389 0 l 292 98 l 292 875 z "},")":{"ha":583,"x_min":0,"x_max":0,"o":"m 292 875 l 292 98 l 194 0 l 97 0 l 97 -194 l 292 -194 l 486 0 l 486 972 l 292 1167 l 97 1167 l 97 972 l 194 972 z "},"+":{"ha":778,"x_min":0,"x_max":0,"o":"m 486 583 l 486 778 l 292 778 l 292 583 l 97 583 l 97 389 l 292 389 l 292 194 l 486 194 l 486 389 l 681 389 l 681 583 z "},",":{"ha":389,"x_min":0,"x_max":0,"o":"m 292 -194 l 292 195 l 97 195 l 97 -194 z "},"-":{"ha":778,"x_min":0,"x_max":0,"o":"m 681 389 l 681 583 l 97 583 l 97 389 z "},".":{"ha":389,"x_min":0,"x_max":0,"o":"m 292 0 l 292 194 l 97 194 l 97 0 z "},"/":{"ha":1167,"x_min":0,"x_max":0,"o":"m 932 972 l 97 137 l 97 0 l 235 0 l 1069 835 l 1069 972 z "},":":{"ha":389,"x_min":0,"x_max":0,"o":"m 292 583 l 292 778 l 97 778 l 97 583 z m 292 194 l 292 389 l 97 389 l 97 194 z "},"=":{"ha":778,"x_min":0,"x_max":0,"o":"m 681 583 l 681 778 l 97 778 l 97 583 z m 681 194 l 681 389 l 97 389 l 97 194 z "},"?":{"ha":1167,"x_min":0,"x_max":0,"o":"m 680 0 l 680 194 l 486 194 l 486 0 z m 875 972 l 292 972 l 97 778 l 97 583 l 292 583 l 292 681 l 389 778 l 778 778 l 875 681 l 778 583 l 486 583 l 486 389 l 875 389 l 1069 583 l 1069 778 z "},"A":{"ha":1167,"x_min":0,"x_max":0,"o":"m 877 194 l 875 194 l 875 0 l 1069 0 l 1069 389 l 875 195 z m 875 972 l 97 972 l 97 778 l 778 778 l 875 681 l 875 583 l 292 583 l 97 389 l 97 0 l 292 0 l 292 292 l 389 389 l 1069 389 l 1069 778 z "},"a":{"ha":1167,"x_min":0,"x_max":0,"o":"m 877 194 l 875 194 l 875 0 l 1069 0 l 1069 389 l 875 195 z m 875 972 l 97 972 l 97 778 l 778 778 l 875 681 l 875 583 l 292 583 l 97 389 l 97 0 l 292 0 l 292 292 l 389 389 l 1069 389 l 1069 778 z "},"À":{"ha":1167,"x_min":0,"x_max":0,"o":"m 877 194 l 875 194 l 875 0 l 1069 0 l 1069 389 l 875 195 z m 875 972 l 97 972 l 97 778 l 778 778 l 875 681 l 875 583 l 292 583 l 97 389 l 97 0 l 292 0 l 292 292 l 389 389 l 1069 389 l 1069 778 z "},"Á":{"ha":1167,"x_min":0,"x_max":0,"o":"m 877 194 l 875 194 l 875 0 l 1069 0 l 1069 389 l 875 195 z m 875 972 l 97 972 l 97 778 l 778 778 l 875 681 l 875 583 l 292 583 l 97 389 l 97 0 l 292 0 l 292 292 l 389 389 l 1069 389 l 1069 778 z "},"Â":{"ha":1167,"x_min":0,"x_max":0,"o":"m 877 194 l 875 194 l 875 0 l 1069 0 l 1069 389 l 875 195 z m 875 972 l 97 972 l 97 778 l 778 778 l 875 681 l 875 583 l 292 583 l 97 389 l 97 0 l 292 0 l 292 292 l 389 389 l 1069 389 l 1069 778 z "},"Ã":{"ha":1167,"x_min":0,"x_max":0,"o":"m 877 194 l 875 194 l 875 0 l 1069 0 l 1069 389 l 875 195 z m 875 972 l 97 972 l 97 778 l 778 778 l 875 681 l 875 583 l 292 583 l 97 389 l 97 0 l 292 0 l 292 292 l 389 389 l 1069 389 l 1069 778 z "},"Ä":{"ha":1167,"x_min":0,"x_max":0,"o":"m 877 194 l 875 194 l 875 0 l 1069 0 l 1069 389 l 875 195 z m 875 972 l 97 972 l 97 778 l 778 778 l 875 681 l 875 583 l 292 583 l 97 389 l 97 0 l 292 0 l 292 292 l 389 389 l 1069 389 l 1069 778 z "},"Å":{"ha":1167,"x_min":0,"x_max":0,"o":"m 877 194 l 875 194 l 875 0 l 1069 0 l 1069 389 l 875 195 z m 875 972 l 97 972 l 97 778 l 778 778 l 875 681 l 875 583 l 292 583 l 97 389 l 97 0 l 292 0 l 292 292 l 389 389 l 1069 389 l 1069 778 z "},"à":{"ha":1167,"x_min":0,"x_max":0,"o":"m 877 194 l 875 194 l 875 0 l 1069 0 l 1069 389 l 875 195 z m 875 972 l 97 972 l 97 778 l 778 778 l 875 681 l 875 583 l 292 583 l 97 389 l 97 0 l 292 0 l 292 292 l 389 389 l 1069 389 l 1069 778 z "},"á":{"ha":1167,"x_min":0,"x_max":0,"o":"m 877 194 l 875 194 l 875 0 l 1069 0 l 1069 389 l 875 195 z m 875 972 l 97 972 l 97 778 l 778 778 l 875 681 l 875 583 l 292 583 l 97 389 l 97 0 l 292 0 l 292 292 l 389 389 l 1069 389 l 1069 778 z "},"â":{"ha":1167,"x_min":0,"x_max":0,"o":"m 877 194 l 875 194 l 875 0 l 1069 0 l 1069 389 l 875 195 z m 875 972 l 97 972 l 97 778 l 778 778 l 875 681 l 875 583 l 292 583 l 97 389 l 97 0 l 292 0 l 292 292 l 389 389 l 1069 389 l 1069 778 z "},"ã":{"ha":1167,"x_min":0,"x_max":0,"o":"m 877 194 l 875 194 l 875 0 l 1069 0 l 1069 389 l 875 195 z m 875 972 l 97 972 l 97 778 l 778 778 l 875 681 l 875 583 l 292 583 l 97 389 l 97 0 l 292 0 l 292 292 l 389 389 l 1069 389 l 1069 778 z "},"ä":{"ha":1167,"x_min":0,"x_max":0,"o":"m 877 194 l 875 194 l 875 0 l 1069 0 l 1069 389 l 875 195 z m 875 972 l 97 972 l 97 778 l 778 778 l 875 681 l 875 583 l 292 583 l 97 389 l 97 0 l 292 0 l 292 292 l 389 389 l 1069 389 l 1069 778 z "},"å":{"ha":1167,"x_min":0,"x_max":0,"o":"m 877 194 l 875 194 l 875 0 l 1069 0 l 1069 389 l 875 195 z m 875 972 l 97 972 l 97 778 l 778 778 l 875 681 l 875 583 l 292 583 l 97 389 l 97 0 l 292 0 l 292 292 l 389 389 l 1069 389 l 1069 778 z "},"B":{"ha":1167,"x_min":0,"x_max":0,"o":"m 1069 778 l 875 972 l 97 972 l 97 778 l 778 778 l 875 681 l 875 680 l 778 583 l 97 583 l 97 389 l 778 389 l 875 292 l 875 291 l 778 194 l 97 194 l 97 0 l 875 0 l 1069 194 l 1069 389 l 1069 389 l 972 486 l 1069 583 z "},"b":{"ha":1167,"x_min":0,"x_max":0,"o":"m 1069 778 l 875 972 l 97 972 l 97 778 l 778 778 l 875 681 l 875 680 l 778 583 l 97 583 l 97 389 l 778 389 l 875 292 l 875 291 l 778 194 l 97 194 l 97 0 l 875 0 l 1069 194 l 1069 389 l 1069 389 l 972 486 l 1069 583 z "},"C":{"ha":1167,"x_min":0,"x_max":0,"o":"m 389 778 l 1069 778 l 1069 972 l 292 972 l 97 778 l 97 194 l 292 0 l 1069 0 l 1069 194 l 389 194 l 292 292 l 292 681 z "},"c":{"ha":1167,"x_min":0,"x_max":0,"o":"m 389 778 l 1069 778 l 1069 972 l 292 972 l 97 778 l 97 194 l 292 0 l 1069 0 l 1069 194 l 389 194 l 292 292 l 292 681 z "},"Ç":{"ha":1167,"x_min":0,"x_max":0,"o":"m 389 778 l 1069 778 l 1069 972 l 292 972 l 97 778 l 97 194 l 292 0 l 1069 0 l 1069 194 l 389 194 l 292 292 l 292 681 z "},"ç":{"ha":1167,"x_min":0,"x_max":0,"o":"m 389 778 l 1069 778 l 1069 972 l 292 972 l 97 778 l 97 194 l 292 0 l 1069 0 l 1069 194 l 389 194 l 292 292 l 292 681 z "},"D":{"ha":1167,"x_min":0,"x_max":0,"o":"m 875 972 l 97 972 l 97 778 l 778 778 l 875 681 l 875 292 l 778 194 l 97 194 l 97 0 l 875 0 l 1069 194 l 1069 778 z "},"d":{"ha":1167,"x_min":0,"x_max":0,"o":"m 875 972 l 97 972 l 97 778 l 778 778 l 875 681 l 875 292 l 778 194 l 97 194 l 97 0 l 875 0 l 1069 194 l 1069 778 z "},"E":{"ha":1167,"x_min":0,"x_max":0,"o":"m 1069 0 l 1069 194 l 97 194 l 97 0 z m 1069 778 l 1069 972 l 97 972 l 97 778 z m 1069 389 l 1069 583 l 97 583 l 97 389 z "},"e":{"ha":1167,"x_min":0,"x_max":0,"o":"m 1069 0 l 1069 194 l 97 194 l 97 0 z m 1069 778 l 1069 972 l 97 972 l 97 778 z m 1069 389 l 1069 583 l 97 583 l 97 389 z "},"È":{"ha":1167,"x_min":0,"x_max":0,"o":"m 1069 0 l 1069 194 l 97 194 l 97 0 z m 1069 778 l 1069 972 l 97 972 l 97 778 z m 1069 389 l 1069 583 l 97 583 l 97 389 z "},"É":{"ha":1167,"x_min":0,"x_max":0,"o":"m 1069 0 l 1069 194 l 97 194 l 97 0 z m 1069 778 l 1069 972 l 97 972 l 97 778 z m 1069 389 l 1069 583 l 97 583 l 97 389 z "},"Ê":{"ha":1167,"x_min":0,"x_max":0,"o":"m 1069 0 l 1069 194 l 97 194 l 97 0 z m 1069 778 l 1069 972 l 97 972 l 97 778 z m 1069 389 l 1069 583 l 97 583 l 97 389 z "},"Ë":{"ha":1167,"x_min":0,"x_max":0,"o":"m 1069 0 l 1069 194 l 97 194 l 97 0 z m 1069 778 l 1069 972 l 97 972 l 97 778 z m 1069 389 l 1069 583 l 97 583 l 97 389 z "},"è":{"ha":1167,"x_min":0,"x_max":0,"o":"m 1069 0 l 1069 194 l 97 194 l 97 0 z m 1069 778 l 1069 972 l 97 972 l 97 778 z m 1069 389 l 1069 583 l 97 583 l 97 389 z "},"é":{"ha":1167,"x_min":0,"x_max":0,"o":"m 1069 0 l 1069 194 l 97 194 l 97 0 z m 1069 778 l 1069 972 l 97 972 l 97 778 z m 1069 389 l 1069 583 l 97 583 l 97 389 z "},"ê":{"ha":1167,"x_min":0,"x_max":0,"o":"m 1069 0 l 1069 194 l 97 194 l 97 0 z m 1069 778 l 1069 972 l 97 972 l 97 778 z m 1069 389 l 1069 583 l 97 583 l 97 389 z "},"ë":{"ha":1167,"x_min":0,"x_max":0,"o":"m 1069 0 l 1069 194 l 97 194 l 97 0 z m 1069 778 l 1069 972 l 97 972 l 97 778 z m 1069 389 l 1069 583 l 97 583 l 97 389 z "},"F":{"ha":1167,"x_min":0,"x_max":0,"o":"m 97 389 l 97 0 l 292 0 l 292 292 l 389 389 l 1069 389 l 1069 583 l 292 583 z m 1069 778 l 1069 972 l 97 972 l 97 778 z "},"f":{"ha":1167,"x_min":0,"x_max":0,"o":"m 97 389 l 97 0 l 292 0 l 292 292 l 389 389 l 1069 389 l 1069 583 l 292 583 z m 1069 778 l 1069 972 l 97 972 l 97 778 z "},"G":{"ha":1167,"x_min":0,"x_max":0,"o":"m 389 778 l 1069 778 l 1069 972 l 292 972 l 97 778 l 97 194 l 292 0 l 875 0 l 1069 194 l 1069 389 l 875 583 l 486 583 l 486 389 l 778 389 l 875 292 l 778 194 l 389 194 l 292 292 l 292 681 z "},"g":{"ha":1167,"x_min":0,"x_max":0,"o":"m 389 778 l 1069 778 l 1069 972 l 292 972 l 97 778 l 97 194 l 292 0 l 875 0 l 1069 194 l 1069 389 l 875 583 l 486 583 l 486 389 l 778 389 l 875 292 l 778 194 l 389 194 l 292 292 l 292 681 z "},"H":{"ha":1167,"x_min":0,"x_max":0,"o":"m 875 0 l 1069 0 l 1069 389 l 875 195 z m 875 972 l 875 584 l 388 584 l 292 680 l 292 972 l 97 972 l 97 584 l 194 486 l 97 389 l 97 0 l 292 0 l 292 292 l 389 389 l 1069 389 l 1069 972 z "},"h":{"ha":1167,"x_min":0,"x_max":0,"o":"m 875 0 l 1069 0 l 1069 389 l 875 195 z m 875 972 l 875 584 l 388 584 l 292 680 l 292 972 l 97 972 l 97 584 l 194 486 l 97 389 l 97 0 l 292 0 l 292 292 l 389 389 l 1069 389 l 1069 972 z "},"I":{"ha":389,"x_min":0,"x_max":0,"o":"m 292 0 l 292 972 l 97 972 l 97 0 z "},"i":{"ha":389,"x_min":0,"x_max":0,"o":"m 292 0 l 292 972 l 97 972 l 97 0 z "},"Ì":{"ha":389,"x_min":0,"x_max":0,"o":"m 292 0 l 292 972 l 97 972 l 97 0 z "},"Í":{"ha":389,"x_min":0,"x_max":0,"o":"m 292 0 l 292 972 l 97 972 l 97 0 z "},"Î":{"ha":389,"x_min":0,"x_max":0,"o":"m 292 0 l 292 972 l 97 972 l 97 0 z "},"Ï":{"ha":389,"x_min":0,"x_max":0,"o":"m 292 0 l 292 972 l 97 972 l 97 0 z "},"ì":{"ha":389,"x_min":0,"x_max":0,"o":"m 292 0 l 292 972 l 97 972 l 97 0 z "},"í":{"ha":389,"x_min":0,"x_max":0,"o":"m 292 0 l 292 972 l 97 972 l 97 0 z "},"î":{"ha":389,"x_min":0,"x_max":0,"o":"m 292 0 l 292 972 l 97 972 l 97 0 z "},"ï":{"ha":389,"x_min":0,"x_max":0,"o":"m 292 0 l 292 972 l 97 972 l 97 0 z "},"J":{"ha":1167,"x_min":0,"x_max":0,"o":"m 875 972 l 875 292 l 778 194 l 389 194 l 292 292 l 292 389 l 97 389 l 97 194 l 292 0 l 875 0 l 1069 194 l 1069 972 z "},"j":{"ha":1167,"x_min":0,"x_max":0,"o":"m 875 972 l 875 292 l 778 194 l 389 194 l 292 292 l 292 389 l 97 389 l 97 194 l 292 0 l 875 0 l 1069 194 l 1069 972 z "},"K":{"ha":1167,"x_min":0,"x_max":0,"o":"m 292 0 l 292 972 l 97 972 l 97 0 z m 1069 972 l 932 972 l 446 486 l 932 0 l 1069 0 l 1069 138 l 721 486 l 1069 835 z "},"k":{"ha":1167,"x_min":0,"x_max":0,"o":"m 292 0 l 292 972 l 97 972 l 97 0 z m 1069 972 l 932 972 l 446 486 l 932 0 l 1069 0 l 1069 138 l 721 486 l 1069 835 z "},"L":{"ha":1167,"x_min":0,"x_max":0,"o":"m 389 194 l 292 292 l 292 972 l 97 972 l 97 194 l 292 0 l 1069 0 l 1069 194 z "},"l":{"ha":1167,"x_min":0,"x_max":0,"o":"m 389 194 l 292 292 l 292 972 l 97 972 l 97 194 l 292 0 l 1069 0 l 1069 194 z "},"M":{"ha":1167,"x_min":0,"x_max":0,"o":"m 292 972 l 97 778 l 97 0 l 292 0 l 292 681 l 389 778 l 486 778 l 486 0 l 681 0 l 681 778 l 1069 778 l 875 972 z m 875 583 l 875 0 l 1069 0 l 1069 778 z "},"m":{"ha":1167,"x_min":0,"x_max":0,"o":"m 292 972 l 97 778 l 97 0 l 292 0 l 292 681 l 389 778 l 486 778 l 486 0 l 681 0 l 681 778 l 1069 778 l 875 972 z m 875 583 l 875 0 l 1069 0 l 1069 778 z "},"N":{"ha":1167,"x_min":0,"x_max":0,"o":"m 777 194 l 680 291 l 680 777 l 486 972 l 292 972 l 97 777 l 97 0 l 292 0 l 292 680 l 389 777 l 486 680 l 486 194 l 680 0 l 874 0 l 1069 194 l 1069 972 l 874 972 l 874 291 z "},"n":{"ha":1167,"x_min":0,"x_max":0,"o":"m 777 194 l 680 291 l 680 777 l 486 972 l 292 972 l 97 777 l 97 0 l 292 0 l 292 680 l 389 777 l 486 680 l 486 194 l 680 0 l 874 0 l 1069 194 l 1069 972 l 874 972 l 874 291 z "},"Ñ":{"ha":1167,"x_min":0,"x_max":0,"o":"m 777 194 l 680 291 l 680 777 l 486 972 l 292 972 l 97 777 l 97 0 l 292 0 l 292 680 l 389 777 l 486 680 l 486 194 l 680 0 l 874 0 l 1069 194 l 1069 972 l 874 972 l 874 291 z "},"ñ":{"ha":1167,"x_min":0,"x_max":0,"o":"m 777 194 l 680 291 l 680 777 l 486 972 l 292 972 l 97 777 l 97 0 l 292 0 l 292 680 l 389 777 l 486 680 l 486 194 l 680 0 l 874 0 l 1069 194 l 1069 972 l 874 972 l 874 291 z "},"O":{"ha":1167,"x_min":0,"x_max":0,"o":"m 875 972 l 97 972 l 97 778 l 800 778 l 875 703 l 875 269 l 800 194 l 366 194 l 292 269 l 292 583 l 97 583 l 97 194 l 292 0 l 875 0 l 1069 194 l 1069 778 z "},"o":{"ha":1167,"x_min":0,"x_max":0,"o":"m 875 972 l 97 972 l 97 778 l 800 778 l 875 703 l 875 269 l 800 194 l 366 194 l 292 269 l 292 583 l 97 583 l 97 194 l 292 0 l 875 0 l 1069 194 l 1069 778 z "},"Ò":{"ha":1167,"x_min":0,"x_max":0,"o":"m 875 972 l 97 972 l 97 778 l 800 778 l 875 703 l 875 269 l 800 194 l 366 194 l 292 269 l 292 583 l 97 583 l 97 194 l 292 0 l 875 0 l 1069 194 l 1069 778 z "},"Ó":{"ha":1167,"x_min":0,"x_max":0,"o":"m 875 972 l 97 972 l 97 778 l 800 778 l 875 703 l 875 269 l 800 194 l 366 194 l 292 269 l 292 583 l 97 583 l 97 194 l 292 0 l 875 0 l 1069 194 l 1069 778 z "},"Ô":{"ha":1167,"x_min":0,"x_max":0,"o":"m 875 972 l 97 972 l 97 778 l 800 778 l 875 703 l 875 269 l 800 194 l 366 194 l 292 269 l 292 583 l 97 583 l 97 194 l 292 0 l 875 0 l 1069 194 l 1069 778 z "},"Õ":{"ha":1167,"x_min":0,"x_max":0,"o":"m 875 972 l 97 972 l 97 778 l 800 778 l 875 703 l 875 269 l 800 194 l 366 194 l 292 269 l 292 583 l 97 583 l 97 194 l 292 0 l 875 0 l 1069 194 l 1069 778 z "},"Ö":{"ha":1167,"x_min":0,"x_max":0,"o":"m 875 972 l 97 972 l 97 778 l 800 778 l 875 703 l 875 269 l 800 194 l 366 194 l 292 269 l 292 583 l 97 583 l 97 194 l 292 0 l 875 0 l 1069 194 l 1069 778 z "},"Ø":{"ha":1167,"x_min":0,"x_max":0,"o":"m 875 972 l 97 972 l 97 778 l 800 778 l 875 703 l 875 269 l 800 194 l 366 194 l 292 269 l 292 583 l 97 583 l 97 194 l 292 0 l 875 0 l 1069 194 l 1069 778 z "},"ò":{"ha":1167,"x_min":0,"x_max":0,"o":"m 875 972 l 97 972 l 97 778 l 800 778 l 875 703 l 875 269 l 800 194 l 366 194 l 292 269 l 292 583 l 97 583 l 97 194 l 292 0 l 875 0 l 1069 194 l 1069 778 z "},"ó":{"ha":1167,"x_min":0,"x_max":0,"o":"m 875 972 l 97 972 l 97 778 l 800 778 l 875 703 l 875 269 l 800 194 l 366 194 l 292 269 l 292 583 l 97 583 l 97 194 l 292 0 l 875 0 l 1069 194 l 1069 778 z "},"ô":{"ha":1167,"x_min":0,"x_max":0,"o":"m 875 972 l 97 972 l 97 778 l 800 778 l 875 703 l 875 269 l 800 194 l 366 194 l 292 269 l 292 583 l 97 583 l 97 194 l 292 0 l 875 0 l 1069 194 l 1069 778 z "},"õ":{"ha":1167,"x_min":0,"x_max":0,"o":"m 875 972 l 97 972 l 97 778 l 800 778 l 875 703 l 875 269 l 800 194 l 366 194 l 292 269 l 292 583 l 97 583 l 97 194 l 292 0 l 875 0 l 1069 194 l 1069 778 z "},"ö":{"ha":1167,"x_min":0,"x_max":0,"o":"m 875 972 l 97 972 l 97 778 l 800 778 l 875 703 l 875 269 l 800 194 l 366 194 l 292 269 l 292 583 l 97 583 l 97 194 l 292 0 l 875 0 l 1069 194 l 1069 778 z "},"ø":{"ha":1167,"x_min":0,"x_max":0,"o":"m 875 972 l 97 972 l 97 778 l 800 778 l 875 703 l 875 269 l 800 194 l 366 194 l 292 269 l 292 583 l 97 583 l 97 194 l 292 0 l 875 0 l 1069 194 l 1069 778 z "},"P":{"ha":1167,"x_min":0,"x_max":0,"o":"m 875 972 l 97 972 l 97 778 l 778 778 l 875 680 l 778 583 l 292 583 l 97 389 l 97 0 l 292 0 l 292 292 l 389 389 l 875 389 l 1069 583 l 1069 778 z "},"p":{"ha":1167,"x_min":0,"x_max":0,"o":"m 875 972 l 97 972 l 97 778 l 778 778 l 875 680 l 778 583 l 292 583 l 97 389 l 97 0 l 292 0 l 292 292 l 389 389 l 875 389 l 1069 583 l 1069 778 z "},"Q":{"ha":1167,"x_min":0,"x_max":0,"o":"m 624 583 l 486 583 l 486 446 l 932 0 l 1070 0 l 1070 137 z m 387 194 l 292 292 l 292 680 l 388 778 l 778 778 l 875 680 l 875 583 l 1069 389 l 1069 778 l 875 972 l 292 972 l 97 778 l 97 195 l 292 0 l 681 0 l 486 195 z "},"q":{"ha":1167,"x_min":0,"x_max":0,"o":"m 624 583 l 486 583 l 486 446 l 932 0 l 1070 0 l 1070 137 z m 387 194 l 292 292 l 292 680 l 388 778 l 778 778 l 875 680 l 875 583 l 1069 389 l 1069 778 l 875 972 l 292 972 l 97 778 l 97 195 l 292 0 l 681 0 l 486 195 z "},"R":{"ha":1167,"x_min":0,"x_max":0,"o":"m 1069 0 l 1069 194 l 97 194 l 97 0 z m 875 972 l 97 972 l 97 778 l 778 778 l 875 680 l 778 583 l 97 583 l 97 389 l 875 389 l 1069 583 l 1069 778 z "},"r":{"ha":1167,"x_min":0,"x_max":0,"o":"m 1069 0 l 1069 194 l 97 194 l 97 0 z m 875 972 l 97 972 l 97 778 l 778 778 l 875 680 l 778 583 l 97 583 l 97 389 l 875 389 l 1069 583 l 1069 778 z "},"S":{"ha":1167,"x_min":0,"x_max":0,"o":"m 1069 778 l 1069 972 l 292 972 l 97 778 l 97 583 l 292 389 l 778 389 l 875 292 l 875 291 l 778 194 l 97 194 l 97 0 l 875 0 l 1069 194 l 1069 389 l 875 583 l 389 583 l 292 681 l 389 778 z "},"s":{"ha":1167,"x_min":0,"x_max":0,"o":"m 1069 778 l 1069 972 l 292 972 l 97 778 l 97 583 l 292 389 l 778 389 l 875 292 l 875 291 l 778 194 l 97 194 l 97 0 l 875 0 l 1069 194 l 1069 389 l 875 583 l 389 583 l 292 681 l 389 778 z "},"T":{"ha":1167,"x_min":0,"x_max":0,"o":"m 97 972 l 97 778 l 1069 778 l 1069 972 z m 486 0 l 680 0 l 680 778 l 486 583 z "},"t":{"ha":1167,"x_min":0,"x_max":0,"o":"m 97 972 l 97 778 l 1069 778 l 1069 972 z m 486 0 l 680 0 l 680 778 l 486 583 z "},"U":{"ha":1167,"x_min":0,"x_max":0,"o":"m 875 972 l 875 292 l 778 194 l 389 194 l 292 292 l 292 972 l 97 972 l 97 194 l 292 0 l 875 0 l 1069 194 l 1069 972 z "},"u":{"ha":1167,"x_min":0,"x_max":0,"o":"m 875 972 l 875 292 l 778 194 l 389 194 l 292 292 l 292 972 l 97 972 l 97 194 l 292 0 l 875 0 l 1069 194 l 1069 972 z "},"Ù":{"ha":1167,"x_min":0,"x_max":0,"o":"m 875 972 l 875 292 l 778 194 l 389 194 l 292 292 l 292 972 l 97 972 l 97 194 l 292 0 l 875 0 l 1069 194 l 1069 972 z "},"Ú":{"ha":1167,"x_min":0,"x_max":0,"o":"m 875 972 l 875 292 l 778 194 l 389 194 l 292 292 l 292 972 l 97 972 l 97 194 l 292 0 l 875 0 l 1069 194 l 1069 972 z "},"Û":{"ha":1167,"x_min":0,"x_max":0,"o":"m 875 972 l 875 292 l 778 194 l 389 194 l 292 292 l 292 972 l 97 972 l 97 194 l 292 0 l 875 0 l 1069 194 l 1069 972 z "},"Ü":{"ha":1167,"x_min":0,"x_max":0,"o":"m 875 972 l 875 292 l 778 194 l 389 194 l 292 292 l 292 972 l 97 972 l 97 194 l 292 0 l 875 0 l 1069 194 l 1069 972 z "},"ù":{"ha":1167,"x_min":0,"x_max":0,"o":"m 875 972 l 875 292 l 778 194 l 389 194 l 292 292 l 292 972 l 97 972 l 97 194 l 292 0 l 875 0 l 1069 194 l 1069 972 z "},"ú":{"ha":1167,"x_min":0,"x_max":0,"o":"m 875 972 l 875 292 l 778 194 l 389 194 l 292 292 l 292 972 l 97 972 l 97 194 l 292 0 l 875 0 l 1069 194 l 1069 972 z "},"û":{"ha":1167,"x_min":0,"x_max":0,"o":"m 875 972 l 875 292 l 778 194 l 389 194 l 292 292 l 292 972 l 97 972 l 97 194 l 292 0 l 875 0 l 1069 194 l 1069 972 z "},"ü":{"ha":1167,"x_min":0,"x_max":0,"o":"m 875 972 l 875 292 l 778 194 l 389 194 l 292 292 l 292 972 l 97 972 l 97 194 l 292 0 l 875 0 l 1069 194 l 1069 972 z "},"V":{"ha":1167,"x_min":0,"x_max":0,"o":"m 876 972 l 876 486 l 584 194 l 292 486 l 292 972 l 98 972 l 98 389 l 487 0 l 681 0 l 1070 389 l 1070 972 z "},"v":{"ha":1167,"x_min":0,"x_max":0,"o":"m 876 972 l 876 486 l 584 194 l 292 486 l 292 972 l 98 972 l 98 389 l 487 0 l 681 0 l 1070 389 l 1070 972 z "},"W":{"ha":1167,"x_min":0,"x_max":0,"o":"m 875 972 l 875 292 l 778 194 l 681 194 l 681 972 l 486 972 l 486 194 l 389 194 l 292 292 l 292 972 l 97 972 l 97 194 l 292 0 l 875 0 l 1069 194 l 1069 972 z "},"w":{"ha":1167,"x_min":0,"x_max":0,"o":"m 875 972 l 875 292 l 778 194 l 681 194 l 681 972 l 486 972 l 486 194 l 389 194 l 292 292 l 292 972 l 97 972 l 97 194 l 292 0 l 875 0 l 1069 194 l 1069 972 z "},"X":{"ha":1167,"x_min":0,"x_max":0,"o":"m 932 972 l 583 624 l 583 624 l 235 972 l 97 972 l 97 835 l 446 486 l 97 137 l 97 0 l 235 0 l 1069 835 l 1069 972 z m 721 211 l 932 0 l 1069 0 l 1069 137 l 858 349 z "},"x":{"ha":1167,"x_min":0,"x_max":0,"o":"m 932 972 l 583 624 l 583 624 l 235 972 l 97 972 l 97 835 l 446 486 l 97 137 l 97 0 l 235 0 l 1069 835 l 1069 972 z m 721 211 l 932 0 l 1069 0 l 1069 137 l 858 349 z "},"Y":{"ha":1167,"x_min":0,"x_max":0,"o":"m 875 972 l 875 680 l 778 583 l 389 583 l 292 680 l 292 972 l 97 972 l 97 583 l 292 389 l 875 389 l 1069 583 l 1069 972 z m 486 0 l 681 0 l 681 389 l 486 194 z "},"y":{"ha":1167,"x_min":0,"x_max":0,"o":"m 875 972 l 875 680 l 778 583 l 389 583 l 292 680 l 292 972 l 97 972 l 97 583 l 292 389 l 875 389 l 1069 583 l 1069 972 z m 486 0 l 681 0 l 681 389 l 486 194 z "},"Ý":{"ha":1167,"x_min":0,"x_max":0,"o":"m 875 972 l 875 680 l 778 583 l 389 583 l 292 680 l 292 972 l 97 972 l 97 583 l 292 389 l 875 389 l 1069 583 l 1069 972 z m 486 0 l 681 0 l 681 389 l 486 194 z "},"ý":{"ha":1167,"x_min":0,"x_max":0,"o":"m 875 972 l 875 680 l 778 583 l 389 583 l 292 680 l 292 972 l 97 972 l 97 583 l 292 389 l 875 389 l 1069 583 l 1069 972 z m 486 0 l 681 0 l 681 389 l 486 194 z "},"ÿ":{"ha":1167,"x_min":0,"x_max":0,"o":"m 875 972 l 875 680 l 778 583 l 389 583 l 292 680 l 292 972 l 97 972 l 97 583 l 292 389 l 875 389 l 1069 583 l 1069 972 z m 486 0 l 681 0 l 681 389 l 486 194 z "},"Ÿ":{"ha":1167,"x_min":0,"x_max":0,"o":"m 875 972 l 875 680 l 778 583 l 389 583 l 292 680 l 292 972 l 97 972 l 97 583 l 292 389 l 875 389 l 1069 583 l 1069 972 z m 486 0 l 681 0 l 681 389 l 486 194 z "},"Z":{"ha":1167,"x_min":0,"x_max":0,"o":"m 1069 972 l 97 972 l 97 778 l 738 778 l 97 138 l 97 0 l 1069 0 l 1069 194 l 429 194 l 1069 835 z "},"z":{"ha":1167,"x_min":0,"x_max":0,"o":"m 1069 972 l 97 972 l 97 778 l 738 778 l 97 138 l 97 0 l 1069 0 l 1069 194 l 429 194 l 1069 835 z "},"[":{"ha":583,"x_min":0,"x_max":0,"o":"m 389 972 l 486 972 l 486 1167 l 292 1167 l 97 972 l 97 0 l 292 -194 l 486 -194 l 486 0 l 389 0 l 292 98 l 292 875 z "},"]":{"ha":583,"x_min":0,"x_max":0,"o":"m 292 875 l 292 98 l 194 0 l 97 0 l 97 -194 l 292 -194 l 486 0 l 486 972 l 292 1167 l 97 1167 l 97 972 l 194 972 z "},"{":{"ha":583,"x_min":0,"x_max":0,"o":"m 389 972 l 486 972 l 486 1167 l 292 1167 l 97 972 l 97 0 l 292 -194 l 486 -194 l 486 0 l 389 0 l 292 98 l 292 875 z "},"|":{"ha":389,"x_min":0,"x_max":0,"o":"m 292 -194 l 292 1167 l 97 1167 l 97 -194 z "},"}":{"ha":583,"x_min":0,"x_max":0,"o":"m 292 875 l 292 98 l 194 0 l 97 0 l 97 -194 l 292 -194 l 486 0 l 486 972 l 292 1167 l 97 1167 l 97 972 l 194 972 z "}," ":{"ha":540,"x_min":0,"x_max":0,"o":""},"­":{"ha":0,"x_min":0,"x_max":0,"o":""},"“":{"ha":778,"x_min":0,"x_max":0,"o":"m 292 778 l 292 1167 l 97 1167 l 97 778 z m 681 778 l 681 1167 l 486 1167 l 486 778 z "},"”":{"ha":778,"x_min":0,"x_max":0,"o":"m 292 778 l 292 1167 l 97 1167 l 97 778 z m 681 778 l 681 1167 l 486 1167 l 486 778 z "},"„":{"ha":778,"x_min":0,"x_max":0,"o":"m 292 778 l 292 1167 l 97 1167 l 97 778 z m 681 778 l 681 1167 l 486 1167 l 486 778 z "}}}
